<svg width="25" height="25" viewBox="0 0 25 25" fill="none" xmlns="http://www.w3.org/2000/svg">
<g clip-path="url(#clip0_97_120)">
<path d="M24.6582 12.5489C24.6582 14.2481 24.624 15.9522 24.668 17.6514C24.7412 20.6592 22.8516 22.9834 20.4443 24.0186C19.4775 24.4336 18.4619 24.6533 17.4121 24.6533C14.126 24.6582 10.835 24.7022 7.54883 24.6387C5.07324 24.5899 3.03711 23.5547 1.57715 21.5137C0.810547 20.4395 0.444336 19.2188 0.444336 17.8955C0.444336 14.3946 0.444336 10.8985 0.444336 7.39749C0.444336 4.54105 1.83594 2.54398 4.30664 1.24515C5.38086 0.683624 6.54785 0.444366 7.76367 0.439483C10.9521 0.439483 14.1455 0.419952 17.334 0.449249C19.8096 0.46878 21.875 1.41605 23.3984 3.40823C24.248 4.52151 24.6582 5.80081 24.6582 7.20706C24.6582 8.9844 24.6582 10.7666 24.6582 12.5489ZM2.24609 12.5489C2.24609 14.3408 2.24609 16.128 2.24609 17.92C2.24609 18.7207 2.43164 19.4727 2.84668 20.1514C3.93555 21.9336 5.58105 22.8028 7.62207 22.8369C10.8984 22.8858 14.1797 22.8565 17.4609 22.8467C18.2666 22.8467 19.0479 22.6807 19.7754 22.334C21.7578 21.3867 22.8662 19.878 22.8564 17.6123C22.8369 14.1455 22.8516 10.6787 22.8516 7.21194C22.8516 6.2305 22.5732 5.33206 21.9922 4.54105C20.8691 3.02249 19.3164 2.27542 17.4609 2.25589C14.1895 2.21683 10.918 2.24124 7.64648 2.24612C6.94824 2.24612 6.27441 2.38773 5.62012 2.63187C3.82324 3.30081 2.15332 4.99515 2.23145 7.49026C2.29004 9.17972 2.24609 10.8643 2.24609 12.5489Z" fill="white"/>
<path d="M12.5781 17.7246C9.42872 17.7246 6.88966 15.2149 6.88477 12.0899C6.87989 9.01368 9.43848 6.49415 12.5684 6.49415C15.708 6.48926 18.2568 9.00391 18.2617 12.1045C18.2617 15.2002 15.7178 17.7197 12.5781 17.7246ZM12.5781 15.918C14.7217 15.918 16.46 14.2041 16.4551 12.0947C16.4502 10.0049 14.7119 8.29591 12.5781 8.29591C10.4346 8.29591 8.68653 10 8.68653 12.1045C8.69141 14.2139 10.4346 15.9229 12.5781 15.918Z" fill="white"/>
<path d="M18.9209 4.78516C19.58 4.78516 20.1172 5.34668 20.1172 6.03516C20.1123 6.72363 19.5703 7.28027 18.9111 7.27539C18.2617 7.27051 17.7295 6.71387 17.7295 6.04004C17.7246 5.35156 18.2617 4.78516 18.9209 4.78516Z" fill="white"/>
</g>
<defs>
<clipPath id="clip0_97_120">
<rect width="25" height="25" fill="white"/>
</clipPath>
</defs>
</svg>
